<svg id="Glyph" height="512" viewBox="0 0 64 64" width="512" xmlns="http://www.w3.org/2000/svg"><g fill="rgb(0,0,0)"><path d="m56.89 11.78a.98139.98139 0 0 0 -1.01-.71c-24.12651.70627-40.73671 16.45838-43.11983 37.3203a1.01435 1.01435 0 0 0 1.55986.89963l22.39997-15.04993a61.95553 61.95553 0 0 1 -19.17 18.77 52.54761 52.54761 0 0 1 -10.87 5.04 1.001 1.001 0 0 0 .63006 1.9 54.85357 54.85357 0 0 0 10.81994-4.96c9.43 4.99 19.63.94 20.07.76 27.96-11.56 18.79-43.65 18.69-43.97z"/><path d="m12.19 41.05a43.44967 43.44967 0 0 1 14.62007-22.13c-1.10307-6.229-5.41425-13.098-11.26013-14.87a.98822.98822 0 0 0 -.95991.2c-6.90424 6.00374-15.03811 22.74882-2.40003 36.8z"/></g></svg>